<?xml version="1.0" encoding="utf-8"?>
<!-- Generator: Adobe Illustrator 16.0.0, SVG Export Plug-In . SVG Version: 6.00 Build 0)  -->
<!DOCTYPE svg PUBLIC "-//W3C//DTD SVG 1.1//EN" "http://www.w3.org/Graphics/SVG/1.1/DTD/svg11.dtd">
<svg version="1.1" xmlns="http://www.w3.org/2000/svg" xmlns:xlink="http://www.w3.org/1999/xlink" x="0px" y="0px" width="300px"
	 height="300px" viewBox="0 0 300 300" style="enable-background:new 0 0 300 300;" xml:space="preserve">
<style type="text/css">
<![CDATA[
	.st0{fill:none;stroke:#2B2E84;stroke-width:0.25;stroke-miterlimit:10;}
	.st1{fill:#BCBEC0;stroke:#2B2E84;stroke-width:3;stroke-miterlimit:10;}
	.st2{fill:#D1D3D4;stroke:#000000;stroke-width:3;stroke-miterlimit:10;}
	.st3{fill:#D1D3D4;stroke:#000000;stroke-width:0.25;stroke-miterlimit:10;}
	.st4{fill:none;stroke:#000000;stroke-width:0.25;stroke-miterlimit:10;}
]]>
</style>
<g id="Outlines">
	<g id="Clones">
		<circle id="Original_11_" class="st4" cx="-858.7" cy="74.3" r="25"/>
		<circle id="Original_12_" class="st4" cx="-891.9" cy="112.6" r="25"/>
		<circle id="Original_13_" class="st4" cx="-899.1" cy="162.8" r="25"/>
		<circle id="Original_14_" class="st4" cx="-878" cy="209" r="25"/>
		<circle id="Original_15_" class="st4" cx="-835.3" cy="236.4" r="25"/>
		<path id="Original_16_" class="st4" d="M-808.6,243.4c-3.9-13.2,3.7-27.1,16.9-31c13.2-3.9,27.1,3.7,31,16.9s-3.7,27.1-16.9,31
			C-790.8,264.2-804.7,256.6-808.6,243.4z"/>
		<path id="Original_17_" class="st4" d="M-758.3,227.8c-10.4-9-11.6-24.8-2.5-35.3c9-10.4,24.8-11.6,35.3-2.5s11.6,24.8,2.5,35.3
			C-732.1,235.7-747.9,236.9-758.3,227.8z"/>
		<path id="Original_18_" class="st4" d="M-724.5,187.5c-13.7-2-23.2-14.6-21.2-28.3c2-13.7,14.6-23.2,28.3-21.2
			c13.7,2,23.2,14.6,21.2,28.3C-698.1,180-710.8,189.5-724.5,187.5z"/>
		<path id="Original_19_" class="st4" d="M-717.8,135.3c-12.6,5.7-27.4,0.2-33.1-12.3c-5.7-12.6-0.2-27.4,12.3-33.1
			c12.6-5.7,27.4-0.2,33.1,12.3C-699.7,114.7-705.2,129.6-717.8,135.3z"/>
		<path id="Original_20_" class="st4" d="M-740.3,87.8c-7.5,11.6-22.9,15-34.5,7.5c-11.6-7.5-15-22.9-7.5-34.5
			c7.5-11.6,22.9-15,34.5-7.5C-736.3,60.7-732.9,76.2-740.3,87.8z"/>
	</g>
	<g id="line_petal">
		<circle id="Guide_1_" class="st0" cx="-810" cy="150" r="65"/>
		<line class="st4" x1="-786.1" y1="67.2" x2="-810" y2="150"/>
		<line class="st4" x1="-833.9" y1="67.2" x2="-810" y2="150"/>
		<circle id="Original_2_" class="st4" cx="-810" cy="60" r="25"/>
	</g>
</g>
<g id="Shapes">
	<g id="Clones_1_">
		<path class="st4" d="M-517.6,60.8c-7.5-11.6-22.9-15-34.5-7.5c-11.6,7.5-15,22.9-7.5,34.5c1.4,2.1,3,3.9,4.8,5.5l0,0L-490,150
			l-24.6-82.6l0,0C-515.3,65.1-516.3,62.9-517.6,60.8z"/>
		<path class="st4" d="M-561.5,89.9c-12.6-5.7-27.4-0.2-33.1,12.4c-5.7,12.6-0.2,27.4,12.4,33.1c2.3,1,4.6,1.7,7,2l0,0L-490,150
			l-65.4-56.2l0,0C-557.2,92.3-559.2,90.9-561.5,89.9z"/>
		<path class="st4" d="M-582.6,138.1c-13.7,2-23.2,14.6-21.2,28.3s14.6,23.2,28.3,21.2c2.5-0.4,4.8-1.1,7-2.1v0L-490,150l-85.4-11.9
			v0C-577.7,137.7-580.2,137.7-582.6,138.1z"/>
		<path class="st4" d="M-574.4,190.1c-10.4,9-11.6,24.8-2.5,35.3c9,10.4,24.8,11.6,35.3,2.5c1.9-1.6,3.5-3.5,4.8-5.5l0,0L-490,150
			l-78.2,36.1l0,0C-570.4,187.1-572.5,188.4-574.4,190.1z"/>
		<path class="st4" d="M-539.3,229.3c-3.9,13.2,3.7,27.1,17,31s27.1-3.7,31-17c0.7-2.4,1-4.8,1-7.2l0,0l0.3-86.2l-46.3,72.7l0,0
			C-537.6,224.7-538.6,226.9-539.3,229.3z"/>
		<path class="st4" d="M-488.6,243.4c3.9,13.2,17.8,20.8,31,16.9s20.8-17.8,16.9-31c-0.7-2.4-1.7-4.6-3-6.6h0L-490,150l0.4,86.2l0,0
			C-489.6,238.6-489.3,241-488.6,243.4z"/>
		<path class="st4" d="M-438.3,227.8c10.4,9,26.2,7.9,35.3-2.5c9-10.4,7.9-26.2-2.5-35.3c-1.9-1.6-4-2.9-6.1-3.9l0,0L-490,150
			l46.9,72.3l0,0C-441.8,224.3-440.2,226.2-438.3,227.8z"/>
		<path class="st4" d="M-404.5,187.5c13.7,2,26.3-7.5,28.3-21.2c2-13.7-7.5-26.3-21.2-28.3c-2.5-0.4-4.9-0.3-7.3,0l0,0l-85.4,12
			l78.6,35.5l0,0C-409.3,186.5-406.9,187.2-404.5,187.5z"/>
		<path class="st4" d="M-397.8,135.3c12.6-5.7,18.1-20.6,12.3-33.1c-5.7-12.6-20.6-18.1-33.1-12.3c-2.3,1-4.3,2.4-6.1,4l0,0
			L-490,150l85.2-12.6l0,0C-402.4,137-400,136.4-397.8,135.3z"/>
		<path class="st4" d="M-420.3,87.8c7.5-11.6,4.1-27.1-7.5-34.5c-11.6-7.5-27.1-4.1-34.5,7.5c-1.4,2.1-2.3,4.3-3,6.6l0,0L-490,150
			l64.9-56.7l0,0C-423.3,91.7-421.7,89.9-420.3,87.8z"/>
	</g>
	<circle id="Guide_2_" class="st0" cx="-490" cy="150" r="65"/>
	<path id="Petal" class="st4" d="M-465,60c0-13.8-11.2-25-25-25s-25,11.2-25,25c0,2.5,0.4,4.9,1.1,7.2h0L-490,150l23.9-82.8h0
		C-465.4,64.9-465,62.5-465,60z"/>
</g>
<g id="Filled">
	<g id="Filled_Clones">
		<path class="st2" d="M-197.6,62.6c-7.5-11.6-22.9-15-34.5-7.5c-11.6,7.5-15,22.9-7.5,34.5c1.4,2.1,3,3.9,4.8,5.5l0,0l64.9,56.7
			l-24.6-82.6l0,0C-195.3,66.9-196.3,64.7-197.6,62.6z"/>
		<path class="st2" d="M-241.5,91.7c-12.6-5.7-27.4-0.2-33.1,12.4c-5.7,12.6-0.2,27.4,12.4,33.1c2.3,1,4.6,1.7,7,2l0,0l85.3,12.6
			l-65.4-56.2l0,0C-237.2,94.1-239.2,92.7-241.5,91.7z"/>
		<path class="st2" d="M-262.6,139.9c-13.7,2-23.2,14.6-21.2,28.3s14.6,23.2,28.3,21.2c2.5-0.4,4.8-1.1,7-2.1v0l78.5-35.5
			l-85.4-11.9v0C-257.7,139.6-260.2,139.5-262.6,139.9z"/>
		<path class="st2" d="M-254.4,191.9c-10.4,9-11.6,24.8-2.5,35.3c9,10.4,24.8,11.6,35.3,2.5c1.9-1.6,3.5-3.5,4.8-5.5l0,0l46.9-72.3
			l-78.2,36.1l0,0C-250.4,188.9-252.5,190.2-254.4,191.9z"/>
		<path class="st2" d="M-219.3,231.1c-3.9,13.2,3.7,27.1,17,31s27.1-3.7,31-17c0.7-2.4,1-4.8,1-7.2l0,0l0.3-86.2l-46.3,72.7l0,0
			C-217.6,226.5-218.6,228.7-219.3,231.1z"/>
		<path class="st2" d="M-168.6,245.2c3.9,13.2,17.8,20.8,31,16.9s20.8-17.8,16.9-31c-0.7-2.4-1.7-4.6-3-6.6h0l-46.3-72.7l0.4,86.2
			l0,0C-169.6,240.4-169.3,242.8-168.6,245.2z"/>
		<path class="st2" d="M-118.3,229.6c10.4,9,26.2,7.9,35.3-2.5c9-10.4,7.9-26.2-2.5-35.3c-1.9-1.6-4-2.9-6.1-3.9l0,0l-78.3-36.1
			l46.9,72.3l0,0C-121.8,226.1-120.2,228-118.3,229.6z"/>
		<path class="st2" d="M-84.5,189.3c13.7,2,26.3-7.5,28.3-21.2c2-13.7-7.5-26.3-21.2-28.3c-2.5-0.4-4.9-0.3-7.3,0l0,0l-85.4,12
			l78.6,35.5l0,0C-89.3,188.3-86.9,189-84.5,189.3z"/>
		<path class="st2" d="M-77.8,137.1c12.6-5.7,18.1-20.6,12.3-33.1C-71.2,91.4-86,85.9-98.5,91.7c-2.3,1-4.3,2.4-6.1,4l0,0
			l-65.3,56.2l85.2-12.6l0,0C-82.4,138.8-80,138.2-77.8,137.1z"/>
		<path class="st2" d="M-100.3,89.6c7.5-11.6,4.1-27.1-7.5-34.5c-11.6-7.5-27.1-4.1-34.5,7.5c-1.4,2.1-2.3,4.3-3,6.6l0,0l-24.6,82.6
			l64.9-56.7l0,0C-103.3,93.5-101.7,91.7-100.3,89.6z"/>
	</g>
	<path id="Petal_1_" class="st2" d="M-145,61.8c0-13.8-11.2-25-25-25s-25,11.2-25,25c0,2.5,0.4,4.9,1.1,7.2h0l23.9,82.8l23.9-82.8h0
		C-145.4,66.7-145,64.3-145,61.8z"/>
	<circle id="Guide_3_" class="st1" cx="-170" cy="150" r="50"/>
</g>
<g id="For_Export">
	<path id="Petal_2_" class="st3" d="M175,60c0-13.8-11.2-25-25-25s-25,11.2-25,25c0,2.5,0.4,4.9,1.1,7.2h0L150,150l23.9-82.8h0
		C174.6,64.9,175,62.5,175,60z"/>
</g>
</svg>
