<?xml version="1.0" encoding="utf-8"?>
<!DOCTYPE svg PUBLIC "-//W3C//DTD SVG 1.1//EN" "http://www.w3.org/Graphics/SVG/1.1/DTD/svg11.dtd">
<svg id="petal" version="1.1" xmlns="http://www.w3.org/2000/svg" xmlns:xlink="http://www.w3.org/1999/xlink" x="0px" y="0px" width="400px" height="400px" viewBox="0 0 400 400" xml:space="preserve">
	<path id="petal01" d="M175,60c0-13.8-11.2-25-25-25s-25,11.2-25,25c0,2.5,0.4,4.9,1.1,7.2h0L150,150l23.9-82.8h0C174.6,64.9,175,62.5,175,60z"/>
	<path id="smile" d="M110.1,145.9c-0.1,1.1-0.1,2.1-0.1,3.2c0,22.1,17.9,40,40,40s40-17.9,40-40c0-1.4-0.1-2.7-0.2-4C163,138,136.2,138.6,110.1,145.9z"/>
	<circle id="face" cx="150" cy="150" r="55"/>
	<circle id="leftEye" cx="131" cy="123" r="9"/>
	<use id="use" xlink:href="#smile" />
</svg>