<?xml version="1.0" encoding="utf-8"?>
<!-- Generator: Adobe Illustrator 16.0.0, SVG Export Plug-In . SVG Version: 6.00 Build 0)  -->
<!DOCTYPE svg PUBLIC "-//W3C//DTD SVG 1.1//EN" "http://www.w3.org/Graphics/SVG/1.1/DTD/svg11.dtd">
<svg version="1.1" xmlns="http://www.w3.org/2000/svg" xmlns:xlink="http://www.w3.org/1999/xlink" x="0px" y="0px" width="300px"
	 height="300px" viewBox="0 0 300 300" style="enable-background:new 0 0 300 300;" xml:space="preserve">
<style type="text/css">
# <![CDATA[
# 	.st0{fill:#754C29;stroke:#2B2F84;stroke-width:0.25;stroke-miterlimit:10;}
# 	.st1{fill:none;stroke:#2B2F84;stroke-width:0.25;stroke-miterlimit:10;}
# 	.st2{fill:#1C75BC;stroke:#000000;stroke-width:0.25;stroke-miterlimit:10;}
# 	.st3{fill:#27AAE1;stroke:#000000;stroke-width:0.25;stroke-miterlimit:10;}
# 	.st4{fill:#603913;stroke:#2B2F84;stroke-width:0.25;stroke-miterlimit:10;}
# 	.st5{fill:#8DC63F;stroke:#000000;stroke-width:0.25;stroke-miterlimit:10;}
# 	.st6{fill:none;stroke:#000000;stroke-width:0.25;stroke-miterlimit:10;}
# ]]>
</style>
<g id="Clover">
	<path id="clover_1_" class="st5" d="M194.4,117.5c-6.4,0.1-12.3,2.1-17.3,5.3c3.4-5.1,5.3-11.2,5.3-17.8
		c0-17.9-14.6-32.5-32.5-32.5s-32.5,14.6-32.5,32.5c0,6.6,2,12.7,5.3,17.8c-5.1-3.4-11.2-5.3-17.8-5.3c-17.9,0-32.5,14.6-32.5,32.5
		c0,17.9,14.6,32.5,32.5,32.5c6.6,0,12.7-2,17.8-5.3c-3.4,5.1-5.3,11.2-5.3,17.8c0,17.9,14.6,32.5,32.5,32.5s32.5-14.6,32.5-32.5
		c0-6.6-2-12.7-5.3-17.8c5.3,3.5,11.6,5.4,18.4,5.3c17.9-0.3,32.2-15.1,31.9-33.1S212.4,117.2,194.4,117.5z"/>
</g>
</svg>
